# xmcd
#
# Track frame offsets: 
#        150
#        16745
#        30287
#        41287
#        54117
#        70075
#        85112
#        97987
#        108325
#        121862
#
# Disc length: 1895 seconds
#
# Revision: 2
# Processed by: cddbd v1.5.2PL0 Copyright (c) Steve Scherf et al.
# Submitted via: ExactAudioCopy v0.95b4
#
DISCID=6107650a
DTITLE=Various Artist - Honky Tonkin'
DYEAR=1996
DGENRE=Country
TTITLE0=Alabama - Mountain Music
TTITLE1=John Anderson - Swingin'
TTITLE2=Mel McDaniel - Louisiana Saturday Night
TTITLE3=Jerry Reed - [I'm Just A] Redneck in a Rock And Roll Bar
TTITLE4=Willie Nelson - Mountain Dew
TTITLE5=Waylon Jennings - Luckenback, Texas
TTITLE6=Johnny Russell - Rednecks, White Socks and Blue Ribbon Beer
TTITLE7=Hank Williams Jr - Honky Tonkin'
TTITLE8=Gary Stewart - Drinkin' Thing
TTITLE9=Merle Haggard - I Think I'll Just Stay Here and Drink
EXTD=
EXTT0=
EXTT1=
EXTT2=
EXTT3=
EXTT4=
EXTT5=
EXTT6=
EXTT7=
EXTT8=
EXTT9=
PLAYORDER=
